<svg width="18" height="18" viewBox="0 0 18 18" fill="none" xmlns="http://www.w3.org/2000/svg">
<path d="M5.16772 13.0713V14.704" stroke="#6D737A" stroke-width="1.08848" stroke-linecap="round" stroke-linejoin="round"/>
<path d="M12.7871 13.0713V14.704" stroke="#6D737A" stroke-width="1.08848" stroke-linecap="round" stroke-linejoin="round"/>
<path d="M4.0791 7.08421V3.54664C4.0791 3.18578 4.22245 2.83971 4.47761 2.58455C4.73278 2.32938 5.07885 2.18604 5.4397 2.18604C5.80056 2.18604 6.14663 2.32938 6.4018 2.58455C6.65696 2.83971 6.80031 3.18578 6.80031 3.54664" stroke="#6D737A" stroke-width="1.08848" stroke-linecap="round" stroke-linejoin="round"/>
<path d="M13.8757 6.54004H9.52173V9.80549H13.8757V6.54004Z" stroke="#6D737A" stroke-width="1.08848" stroke-linecap="round" stroke-linejoin="round"/>
<path d="M13.8755 7.08447H16.0524C16.1968 7.08447 16.3352 7.14181 16.4373 7.24388C16.5393 7.34594 16.5967 7.48437 16.5967 7.62871V9.80568C16.5967 10.6717 16.2526 11.5023 15.6402 12.1147C15.0278 12.7271 14.1973 13.0711 13.3312 13.0711H4.62336C3.75731 13.0711 2.92673 12.7271 2.31434 12.1147C1.70195 11.5023 1.35791 10.6717 1.35791 9.80568V7.62871C1.35791 7.48437 1.41525 7.34594 1.51731 7.24388C1.61938 7.14181 1.75781 7.08447 1.90215 7.08447H9.52153" stroke="#6D737A" stroke-width="1.08848" stroke-linecap="round" stroke-linejoin="round"/>
</svg>
