<svg width="18" height="18" viewBox="0 0 18 18" fill="none" xmlns="http://www.w3.org/2000/svg">
<path d="M1.58838 8.17285H16.8271" stroke="#6D737A" stroke-width="1.08848" stroke-linecap="round" stroke-linejoin="round"/>
<path d="M15.7388 12.5269V14.1596C15.7388 14.3039 15.6814 14.4424 15.5794 14.5444C15.4773 14.6465 15.3389 14.7038 15.1945 14.7038H13.5618C13.4175 14.7038 13.279 14.6465 13.177 14.5444C13.0749 14.4424 13.0176 14.3039 13.0176 14.1596V12.5269" stroke="#6D737A" stroke-width="1.08848" stroke-linecap="round" stroke-linejoin="round"/>
<path d="M5.39821 12.5269V14.1596C5.39821 14.3039 5.34087 14.4424 5.2388 14.5444C5.13674 14.6465 4.99831 14.7038 4.85397 14.7038H3.22124C3.0769 14.7038 2.93847 14.6465 2.83641 14.5444C2.73434 14.4424 2.677 14.3039 2.677 14.1596V12.5269" stroke="#6D737A" stroke-width="1.08848" stroke-linecap="round" stroke-linejoin="round"/>
<path d="M4.854 10.3501H5.94249" stroke="#6D737A" stroke-width="1.08848" stroke-linecap="round" stroke-linejoin="round"/>
<path d="M12.4734 10.3501H13.5619" stroke="#6D737A" stroke-width="1.08848" stroke-linecap="round" stroke-linejoin="round"/>
<path d="M15.7388 8.17307L13.7047 3.60145C13.6625 3.50473 13.5931 3.42237 13.5049 3.3644C13.4167 3.30642 13.3136 3.27533 13.2081 3.2749H5.20772C5.1022 3.27533 4.99907 3.30642 4.9109 3.3644C4.82273 3.42237 4.75331 3.50473 4.7111 3.60145L2.677 8.17307V12.527H15.7388V8.17307Z" stroke="#6D737A" stroke-width="1.08848" stroke-linecap="round" stroke-linejoin="round"/>
</svg>
