<svg width="15" height="16" viewBox="0 0 15 16" fill="none" xmlns="http://www.w3.org/2000/svg">
<path d="M7.31469 13.2014C7.31469 13.2014 1.64551 10.0267 1.64551 6.17161C1.64551 5.49011 1.88163 4.82966 2.31369 4.30263C2.74575 3.7756 3.34707 3.41454 4.01534 3.28089C4.6836 3.14723 5.37753 3.24924 5.97907 3.56955C6.5806 3.88987 7.05257 4.4087 7.31469 5.03778V5.03778C7.5768 4.4087 8.04878 3.88987 8.65031 3.56955C9.25184 3.24924 9.94577 3.14723 10.614 3.28089C11.2823 3.41454 11.8836 3.7756 12.3157 4.30263C12.7477 4.82966 12.9839 5.49011 12.9839 6.17161C12.9839 10.0267 7.31469 13.2014 7.31469 13.2014Z" stroke="#4A60A1" stroke-width="0.936687" stroke-linecap="round" stroke-linejoin="round"/>
</svg>
