<svg width="79" height="79" viewBox="0 0 79 79" fill="none" xmlns="http://www.w3.org/2000/svg">
<path d="M69.3086 38.2657H69.2868C68.9911 38.2657 68.7063 38.1533 68.4905 37.9537L56.239 26.5948C55.7638 26.154 55.7366 25.4121 56.1755 24.9386C56.6163 24.4634 57.3582 24.4362 57.8317 24.8751L69.958 36.1162C70.2736 36.3266 70.4804 36.6858 70.4804 37.0921C70.4804 37.7415 69.9561 38.2657 69.3086 38.2657ZM45.7562 16.4529C45.4714 16.4529 45.1848 16.3496 44.9599 16.1409C41.4535 12.8922 38.9901 10.6066 38.9901 10.6066C38.6727 10.3127 38.5439 9.86829 38.6527 9.44927C38.7616 9.03025 39.0935 8.70736 39.5144 8.60578L39.7339 8.55318C40.3579 8.40443 40.9855 8.78536 41.1433 9.40574C42.0612 10.2565 44.0402 12.0922 46.5543 14.4213C47.0296 14.8621 47.0568 15.604 46.6178 16.0775C46.3856 16.326 46.0718 16.4529 45.7562 16.4529Z" fill="#4A60A1"/>
<path d="M63.4297 69.4989C62.8238 69.4989 62.3105 69.0327 62.2615 68.4196C62.2416 68.1657 62.3032 67.9244 62.4248 67.7231V37.0854C62.4248 36.4378 62.949 35.9136 63.5966 35.9136C64.2442 35.9136 64.7684 36.4378 64.7684 37.0854V68.3144C64.7684 68.9257 64.2986 69.4336 63.6891 69.4826L63.5222 69.4953C63.4914 69.4971 63.4605 69.4989 63.4297 69.4989Z" fill="#4A60A1"/>
<path d="M58.1599 25.4392C57.5142 25.4392 56.9881 24.9168 56.9881 24.2692L56.9664 13.9351C56.4711 13.79 56.1156 13.3292 56.1247 12.7887C56.1374 12.1411 56.6761 11.6205 57.3183 11.6386L58.1581 11.6532C58.7966 11.664 59.3082 12.1846 59.3082 12.8232L59.3317 24.2638C59.3336 24.9113 58.8093 25.4374 58.1618 25.4392C58.1618 25.4392 58.1618 25.4392 58.1599 25.4392Z" fill="#4A60A1"/>
<path d="M56.682 26.1949C56.682 26.9806 57.3181 27.6167 58.1038 27.6167C58.8889 27.6167 59.5274 26.9811 59.5274 26.1949V12.6791C59.5274 11.8935 58.8913 11.2573 58.1056 11.2573H49.5546C48.769 11.2573 48.1328 11.8935 48.1328 12.6791V18.2208C48.1328 19.0064 48.769 19.6426 49.5546 19.6426C50.3403 19.6426 50.9764 19.0064 50.9764 18.2208V14.101H56.682V26.1949Z" fill="#1E2640" stroke="#1E2640" stroke-width="0.5"/>
<path d="M8.73161 36.0437L8.73138 36.0439C8.15312 36.5738 8.1106 37.4738 8.64159 38.0533C8.92133 38.3593 9.30667 38.5153 9.69116 38.5153C10.0342 38.5153 10.3778 38.392 10.6504 38.1435L10.6507 38.1433L39.6057 11.677L68.1464 38.1366L68.1467 38.1369C68.723 38.6692 69.621 38.6364 70.1558 38.0598L70.1558 38.0598C70.6887 37.4851 70.6554 36.585 70.079 36.0504L70.0789 36.0503L40.579 8.7017C40.037 8.19719 39.1983 8.19539 38.6526 8.69484L8.73161 36.0437Z" fill="#4A60A1" stroke="#4A60A1" stroke-width="0.5"/>
<path d="M15.3071 69.7457H63.6072L64.7772 68.3221H65.0272V68.3214V33.7662C65.0272 32.9806 64.3911 32.3444 63.6054 32.3444C62.8197 32.3444 62.1836 32.9806 62.1836 33.7662V66.9002H16.7289V32.7123C16.7289 31.9267 16.0927 31.2905 15.3071 31.2905C14.5214 31.2905 13.8853 31.9267 13.8853 32.7123V68.3239C13.8853 69.1095 14.5214 69.7457 15.3071 69.7457Z" fill="#4A60A1" stroke="#4A60A1" stroke-width="0.5"/>
<path d="M38.375 51.7593C42.7242 51.7593 46.25 48.2335 46.25 43.8843C46.25 39.535 42.7242 36.0093 38.375 36.0093C34.0258 36.0093 30.5 39.535 30.5 43.8843C30.5 48.2335 34.0258 51.7593 38.375 51.7593Z" stroke="#1E2640" stroke-width="2" stroke-linecap="round" stroke-linejoin="round"/>
<path d="M43.9438 49.4526L48.5001 54.0089" stroke="#1E2640" stroke-width="2" stroke-linecap="round" stroke-linejoin="round"/>
</svg>
