<svg width="15" height="16" viewBox="0 0 15 16" fill="none" xmlns="http://www.w3.org/2000/svg">
<path d="M3.66008 10.0267C4.66201 10.0267 5.47422 9.2145 5.47422 8.21257C5.47422 7.21065 4.66201 6.39844 3.66008 6.39844C2.65816 6.39844 1.84595 7.21065 1.84595 8.21257C1.84595 9.2145 2.65816 10.0267 3.66008 10.0267Z" stroke="#4A60A1" stroke-width="0.936687" stroke-linecap="round" stroke-linejoin="round"/>
<path d="M10.0097 14.1087C11.0116 14.1087 11.8238 13.2965 11.8238 12.2946C11.8238 11.2927 11.0116 10.4805 10.0097 10.4805C9.00777 10.4805 8.19556 11.2927 8.19556 12.2946C8.19556 13.2965 9.00777 14.1087 10.0097 14.1087Z" stroke="#4A60A1" stroke-width="0.936687" stroke-linecap="round" stroke-linejoin="round"/>
<path d="M10.0097 5.94468C11.0116 5.94468 11.8238 5.13246 11.8238 4.13054C11.8238 3.12862 11.0116 2.31641 10.0097 2.31641C9.00777 2.31641 8.19556 3.12862 8.19556 4.13054C8.19556 5.13246 9.00777 5.94468 10.0097 5.94468Z" stroke="#4A60A1" stroke-width="0.936687" stroke-linecap="round" stroke-linejoin="round"/>
<path d="M8.48477 5.11182L5.1853 7.23209" stroke="#4A60A1" stroke-width="0.936687" stroke-linecap="round" stroke-linejoin="round"/>
<path d="M5.1853 9.19336L8.48477 11.3136" stroke="#4A60A1" stroke-width="0.936687" stroke-linecap="round" stroke-linejoin="round"/>
</svg>
